<svg width="24" height="24" viewBox="0 0 24 24" fill="none" xmlns="http://www.w3.org/2000/svg">
<path d="M2.99963 11.6976C5.204 11.545 7.73411 11.5641 9.5195 12.1069C10.593 12.4333 11.5309 13.1097 12.5644 13.8545C13.0503 14.2047 13.5866 14.589 14.1224 14.8796C14.6584 15.1703 15.3143 15.4358 16.0491 15.4358C17.7165 15.4357 18.5026 14.0764 18.8909 13.4469C19.4072 12.6097 19.6551 12.2381 20.0747 12.0734C20.7191 11.8208 21.7718 11.7898 22.8276 11.8804C23.2794 11.9192 23.6885 11.9761 24 12.0265C23.9858 18.6419 18.619 24.0004 12.0002 24.0004C5.37818 24.0004 0.0089136 18.6367 1.05053e-06 12.0167C0.0862733 12.0043 0.178516 11.9911 0.276389 11.9778C0.963755 11.8843 1.92142 11.7722 2.99963 11.6976Z" fill="url(#paint0_linear_285_170)"/>
<path d="M12.0002 -1.04909e-06C17.7202 3.03106e-05 22.5047 4.00228 23.708 9.35908C23.5023 9.33367 23.2814 9.30913 23.0498 9.28924C21.9484 9.19467 20.3713 9.16408 19.1258 9.6524C17.7408 10.1954 17.0613 11.4599 16.6776 12.0819C16.1668 12.9101 16.0788 12.8356 16.0491 12.8353C15.9353 12.8353 15.7269 12.7914 15.3622 12.5936C14.9972 12.3957 14.5951 12.1124 14.0848 11.7446C13.1256 11.0533 11.8364 10.093 10.2759 9.61854C8.00601 8.9285 5.0688 8.94778 2.81975 9.10343C1.85307 9.17034 0.980286 9.26568 0.293319 9.35316C1.49872 3.99927 6.28225 -5.49211e-07 12.0002 -1.04909e-06Z" fill="url(#paint1_linear_285_170)"/>
<defs>
<linearGradient id="paint0_linear_285_170" x1="12" y1="-1.04907e-06" x2="12" y2="24.0004" gradientUnits="userSpaceOnUse">
<stop stop-color="#8F85FF"/>
<stop offset="1" stop-color="#4135D6"/>
</linearGradient>
<linearGradient id="paint1_linear_285_170" x1="12" y1="-1.04907e-06" x2="12" y2="24.0004" gradientUnits="userSpaceOnUse">
<stop stop-color="#8F85FF"/>
<stop offset="1" stop-color="#4135D6"/>
</linearGradient>
</defs>
</svg>
