<svg width="46" height="47" viewBox="0 0 46 47" fill="none" xmlns="http://www.w3.org/2000/svg">
<g clip-path="url(#clip0_113_334)">
<path d="M45.0086 6.13677C45.6225 6.49531 46 7.15285 46 7.86384V16.6598C46 18.2038 44.3247 19.1655 42.9914 18.3869L35.5086 14.0171C34.8854 13.6532 34.1146 13.6532 33.4914 14.0171L24.0086 19.5548C23.3854 19.9187 22.6146 19.9187 21.9914 19.5548L12.5086 14.0171C11.8854 13.6532 11.1146 13.6532 10.4914 14.0171L3.00857 18.3869C1.67526 19.1655 0 18.2038 0 16.6598V7.86384C0 7.15285 0.377461 6.49531 0.991428 6.13677L10.4914 0.588984C11.1146 0.225082 11.8854 0.225081 12.5086 0.588983L21.9914 6.12676C22.6146 6.49066 23.3854 6.49066 24.0086 6.12676L33.4914 0.588983C34.1146 0.225081 34.8854 0.225081 35.5086 0.588983L45.0086 6.13677Z" fill="url(#paint0_linear_113_334)"/>
<path d="M41.4877 22.7775C43.4877 21.6102 46 23.0528 46 25.3685V31.8493C46 32.916 45.4336 33.9025 44.5123 34.4402L34.5 40.2842L24.5129 46.1165C23.5781 46.6624 22.4219 46.6624 21.4871 46.1165L11.5 40.2842L1.48771 34.4402C0.56644 33.9025 0 32.916 0 31.8493V25.3685C0 23.0528 2.51232 21.6102 4.51229 22.7775L11.5 26.8561L21.4871 32.6884C22.4219 33.2343 23.5781 33.2343 24.5129 32.6884L34.5 26.8561L41.4877 22.7775Z" fill="url(#paint1_linear_113_334)"/>
</g>
<defs>
<linearGradient id="paint0_linear_113_334" x1="23" y1="0" x2="23" y2="20.1438" gradientUnits="userSpaceOnUse">
<stop stop-color="#B5AFFF"/>
<stop offset="1" stop-color="#4135D6"/>
</linearGradient>
<linearGradient id="paint1_linear_113_334" x1="23" y1="20.1438" x2="23" y2="47" gradientUnits="userSpaceOnUse">
<stop stop-color="#B5AFFF"/>
<stop offset="1" stop-color="#4135D6"/>
</linearGradient>
<clipPath id="clip0_113_334">
<rect width="46" height="47" fill="white"/>
</clipPath>
</defs>
</svg>
