<svg width="107" height="25" viewBox="0 0 107 25" fill="none" xmlns="http://www.w3.org/2000/svg">
<path d="M22 6.39784V11.1923L16.5 8.79447L11 11.1923L5.5 8.79447L0 11.1923V6.39784L5.5 4L11 6.39784L16.5 4L22 6.39784Z" fill="#E9E9E9"/>
<path d="M22 9.88462V15.4423L11 21L0 15.4423V9.88462L11 14.9286L22 9.88462Z" fill="#E9E9E9"/>
<path d="M27.22 17V6.12H29.68V8.64L29.4 8.22C29.6 7.43333 30 6.84667 30.6 6.46C31.2 6.07333 31.9067 5.88 32.72 5.88C33.6133 5.88 34.4 6.11333 35.08 6.58C35.76 7.04667 36.2 7.66 36.4 8.42L35.66 8.48C35.9933 7.61333 36.4933 6.96667 37.16 6.54C37.8267 6.1 38.5933 5.88 39.46 5.88C40.2333 5.88 40.92 6.05333 41.52 6.4C42.1333 6.74667 42.6133 7.23333 42.96 7.86C43.3067 8.47333 43.48 9.18667 43.48 10V17H40.86V10.62C40.86 10.14 40.7733 9.72667 40.6 9.38C40.4267 9.03333 40.1867 8.76667 39.88 8.58C39.5733 8.38 39.2 8.28 38.76 8.28C38.3467 8.28 37.98 8.38 37.66 8.58C37.34 8.76667 37.0933 9.03333 36.92 9.38C36.7467 9.72667 36.66 10.14 36.66 10.62V17H34.04V10.62C34.04 10.14 33.9533 9.72667 33.78 9.38C33.6067 9.03333 33.36 8.76667 33.04 8.58C32.7333 8.38 32.3667 8.28 31.94 8.28C31.5267 8.28 31.16 8.38 30.84 8.58C30.52 8.76667 30.2733 9.03333 30.1 9.38C29.9267 9.72667 29.84 10.14 29.84 10.62V17H27.22ZM50.8566 17.24C49.7366 17.24 48.7566 16.9867 47.9166 16.48C47.0766 15.9733 46.4232 15.2867 45.9566 14.42C45.4899 13.5533 45.2566 12.5933 45.2566 11.54C45.2566 10.4467 45.4899 9.48 45.9566 8.64C46.4366 7.78667 47.0832 7.11333 47.8966 6.62C48.7232 6.12667 49.6432 5.88 50.6566 5.88C51.5099 5.88 52.2566 6.02 52.8966 6.3C53.5499 6.58 54.1032 6.96667 54.5566 7.46C55.0099 7.95333 55.3566 8.52 55.5966 9.16C55.8366 9.78667 55.9566 10.4667 55.9566 11.2C55.9566 11.3867 55.9432 11.58 55.9166 11.78C55.9032 11.98 55.8699 12.1533 55.8166 12.3H47.4166V10.3H54.3366L53.0966 11.24C53.2166 10.6267 53.1832 10.08 52.9966 9.6C52.8232 9.12 52.5299 8.74 52.1166 8.46C51.7166 8.18 51.2299 8.04 50.6566 8.04C50.1099 8.04 49.6232 8.18 49.1966 8.46C48.7699 8.72667 48.4432 9.12667 48.2166 9.66C48.0032 10.18 47.9232 10.8133 47.9766 11.56C47.9232 12.2267 48.0099 12.82 48.2366 13.34C48.4766 13.8467 48.8232 14.24 49.2766 14.52C49.7432 14.8 50.2766 14.94 50.8766 14.94C51.4766 14.94 51.9832 14.8133 52.3966 14.56C52.8232 14.3067 53.1566 13.9667 53.3966 13.54L55.5166 14.58C55.3032 15.1 54.9699 15.56 54.5166 15.96C54.0632 16.36 53.5232 16.6733 52.8966 16.9C52.2832 17.1267 51.6032 17.24 50.8566 17.24ZM62.9027 17.12C61.676 17.12 60.7227 16.7867 60.0427 16.12C59.376 15.44 59.0427 14.4867 59.0427 13.26V8.46H57.1627V6.12H57.3627C57.896 6.12 58.3093 5.98 58.6027 5.7C58.896 5.42 59.0427 5.01333 59.0427 4.48V3.64H61.6627V6.12H64.1627V8.46H61.6627V13.12C61.6627 13.48 61.7227 13.7867 61.8427 14.04C61.976 14.2933 62.176 14.4867 62.4427 14.62C62.7227 14.7533 63.076 14.82 63.5027 14.82C63.596 14.82 63.7027 14.8133 63.8227 14.8C63.956 14.7867 64.0827 14.7733 64.2027 14.76V17C64.016 17.0267 63.8027 17.0533 63.5627 17.08C63.3227 17.1067 63.1027 17.12 62.9027 17.12ZM66.2044 17V6.12H68.6644V8.54L68.4644 8.18C68.7177 7.36667 69.111 6.8 69.6444 6.48C70.191 6.16 70.8444 6 71.6044 6H72.2444V8.32H71.3044C70.5577 8.32 69.9577 8.55333 69.5044 9.02C69.051 9.47333 68.8244 10.1133 68.8244 10.94V17H66.2044ZM75.0048 21.4C74.7115 21.4 74.4248 21.3733 74.1448 21.32C73.8648 21.28 73.6115 21.2 73.3848 21.08V18.9C73.5582 18.94 73.7648 18.98 74.0048 19.02C74.2582 19.06 74.4915 19.08 74.7048 19.08C75.3048 19.08 75.7382 18.94 76.0048 18.66C76.2848 18.3933 76.5315 18.0333 76.7448 17.58L77.4648 15.9L77.4248 18.1L72.6848 6.12H75.5048L78.8248 14.96H77.8248L81.1248 6.12H83.9648L79.2248 18.1C78.9448 18.7933 78.6048 19.3867 78.2048 19.88C77.8048 20.3733 77.3382 20.7467 76.8048 21C76.2848 21.2667 75.6848 21.4 75.0048 21.4Z" fill="#E9E9E9"/>
</svg>
