<svg width="106" height="30" viewBox="0 0 106 30" fill="none" xmlns="http://www.w3.org/2000/svg">
<path d="M2.99963 15.6973C5.204 15.5448 7.73411 15.5638 9.5195 16.1066C10.593 16.433 11.5309 17.1094 12.5644 17.8543C13.0503 18.2045 13.5866 18.5888 14.1224 18.8794C14.6584 19.17 15.3143 19.4356 16.0491 19.4356C17.7165 19.4355 18.5026 18.0762 18.8909 17.4467C19.4072 16.6094 19.6551 16.2378 20.0747 16.0732C20.7191 15.8205 21.7718 15.7895 22.8276 15.8802C23.2794 15.919 23.6885 15.9758 24 16.0262C23.9858 22.6417 18.619 28.0001 12.0002 28.0002C5.37818 28.0002 0.0089136 22.6364 1.05053e-06 16.0165C0.0862733 16.0041 0.178516 15.9908 0.276389 15.9775C0.963755 15.8841 1.92142 15.772 2.99963 15.6973Z" fill="url(#paint0_linear_285_169)"/>
<path d="M12.0002 3.99975C17.7202 3.99979 22.5047 8.00203 23.708 13.3588C23.5023 13.3334 23.2814 13.3089 23.0498 13.289C21.9484 13.1944 20.3713 13.1638 19.1258 13.6522C17.7408 14.1952 17.0613 15.4597 16.6776 16.0817C16.1668 16.9099 16.0788 16.8354 16.0491 16.8351C15.9353 16.8351 15.7269 16.7912 15.3622 16.5934C14.9972 16.3955 14.5951 16.1121 14.0848 15.7443C13.1256 15.053 11.8364 14.0927 10.2759 13.6183C8.00601 12.9283 5.0688 12.9475 2.81975 13.1032C1.85307 13.1701 0.980286 13.2654 0.293319 13.3529C1.49872 7.99903 6.28225 3.99976 12.0002 3.99975Z" fill="url(#paint1_linear_285_169)"/>
<path d="M33.5627 23V9.944H36.6347V12.992L36.2987 12.512C36.5227 11.536 36.9947 10.816 37.7147 10.352C38.4507 9.888 39.3147 9.656 40.3067 9.656C41.3787 9.656 42.3227 9.936 43.1387 10.496C43.9547 11.04 44.4827 11.776 44.7227 12.704L43.7627 12.776C44.1787 11.72 44.7867 10.936 45.5867 10.424C46.3867 9.912 47.3147 9.656 48.3707 9.656C49.2987 9.656 50.1227 9.864 50.8427 10.28C51.5787 10.696 52.1547 11.272 52.5707 12.008C52.9867 12.744 53.1947 13.608 53.1947 14.6V23H49.9307V15.344C49.9307 14.784 49.8267 14.304 49.6187 13.904C49.4267 13.504 49.1467 13.192 48.7787 12.968C48.4107 12.744 47.9787 12.632 47.4827 12.632C46.9867 12.632 46.5547 12.744 46.1867 12.968C45.8187 13.192 45.5307 13.504 45.3227 13.904C45.1307 14.304 45.0347 14.784 45.0347 15.344V23H41.7467V15.344C41.7467 14.784 41.6427 14.304 41.4347 13.904C41.2427 13.504 40.9627 13.192 40.5947 12.968C40.2267 12.744 39.7947 12.632 39.2987 12.632C38.8027 12.632 38.3707 12.744 38.0027 12.968C37.6347 13.192 37.3467 13.504 37.1387 13.904C36.9467 14.304 36.8507 14.784 36.8507 15.344V23H33.5627ZM61.998 23.288C60.638 23.288 59.446 22.984 58.422 22.376C57.414 21.768 56.63 20.944 56.07 19.904C55.51 18.864 55.23 17.712 55.23 16.448C55.23 15.136 55.518 13.968 56.094 12.944C56.67 11.92 57.446 11.12 58.422 10.544C59.414 9.952 60.526 9.656 61.758 9.656C62.782 9.656 63.686 9.824 64.47 10.16C65.254 10.48 65.918 10.936 66.462 11.528C67.006 12.12 67.422 12.8 67.71 13.568C67.998 14.336 68.142 15.16 68.142 16.04C68.142 16.28 68.126 16.52 68.094 16.76C68.078 17 68.038 17.216 67.974 17.408H57.99V14.936H66.126L64.566 16.088C64.726 15.368 64.702 14.728 64.494 14.168C64.286 13.592 63.942 13.144 63.462 12.824C62.998 12.488 62.43 12.32 61.758 12.32C61.102 12.32 60.526 12.48 60.03 12.8C59.55 13.12 59.182 13.592 58.926 14.216C58.67 14.84 58.574 15.592 58.638 16.472C58.574 17.256 58.67 17.944 58.926 18.536C59.198 19.128 59.598 19.592 60.126 19.928C60.67 20.264 61.302 20.432 62.022 20.432C62.726 20.432 63.318 20.288 63.798 20C64.294 19.696 64.678 19.304 64.95 18.824L67.59 20.096C67.334 20.72 66.934 21.272 66.39 21.752C65.846 22.232 65.198 22.608 64.446 22.88C63.694 23.152 62.878 23.288 61.998 23.288ZM75.8054 23.144C74.2854 23.144 73.1094 22.736 72.2774 21.92C71.4614 21.088 71.0534 19.928 71.0534 18.44V12.824H68.8214V9.944H69.0134C69.6694 9.944 70.1734 9.776 70.5254 9.44C70.8774 9.088 71.0534 8.592 71.0534 7.952V6.968H74.3414V9.944H77.3654V12.824H74.3414V18.248C74.3414 18.696 74.4134 19.072 74.5574 19.376C74.7174 19.664 74.9574 19.888 75.2774 20.048C75.6134 20.208 76.0374 20.288 76.5494 20.288C76.6614 20.288 76.7894 20.28 76.9334 20.264C77.0934 20.248 77.2454 20.232 77.3894 20.216V23C77.1654 23.032 76.9014 23.064 76.5974 23.096C76.3094 23.128 76.0454 23.144 75.8054 23.144ZM78.9743 23V9.944H82.0463V12.896L81.8063 12.464C82.1103 11.456 82.5903 10.76 83.2463 10.376C83.9023 9.992 84.6783 9.8 85.5743 9.8H86.3663V12.68H85.2383C84.3423 12.68 83.6223 12.952 83.0783 13.496C82.5343 14.04 82.2623 14.808 82.2623 15.8V23H78.9743ZM89.7726 28.28C89.4046 28.28 89.0446 28.248 88.6926 28.184C88.3566 28.136 88.0606 28.04 87.8046 27.896V25.16C88.0126 25.224 88.2606 25.28 88.5486 25.328C88.8526 25.376 89.1326 25.4 89.3886 25.4C90.1086 25.4 90.6286 25.232 90.9486 24.896C91.2686 24.576 91.5406 24.16 91.7646 23.648L92.6526 21.632L92.6046 24.392L86.8926 9.944H90.4206L94.3566 20.48H93.0846L96.9966 9.944H100.525L94.8846 24.296C94.5486 25.144 94.1326 25.864 93.6366 26.456C93.1406 27.064 92.5726 27.52 91.9326 27.824C91.2926 28.128 90.5726 28.28 89.7726 28.28Z" fill="#E9E9E9"/>
<defs>
<linearGradient id="paint0_linear_285_169" x1="12" y1="3.99975" x2="12" y2="28.0002" gradientUnits="userSpaceOnUse">
<stop stop-color="#8F85FF"/>
<stop offset="1" stop-color="#4135D6"/>
</linearGradient>
<linearGradient id="paint1_linear_285_169" x1="12" y1="3.99975" x2="12" y2="28.0002" gradientUnits="userSpaceOnUse">
<stop stop-color="#8F85FF"/>
<stop offset="1" stop-color="#4135D6"/>
</linearGradient>
</defs>
</svg>
