<svg width="106" height="30" viewBox="0 0 106 30" fill="none" xmlns="http://www.w3.org/2000/svg">
<path d="M2.99963 15.6973C5.204 15.5448 7.73411 15.5638 9.5195 16.1066C10.593 16.433 11.5309 17.1094 12.5644 17.8543C13.0503 18.2045 13.5866 18.5888 14.1224 18.8794C14.6584 19.17 15.3143 19.4356 16.0491 19.4356C17.7165 19.4355 18.5026 18.0762 18.8909 17.4467C19.4072 16.6094 19.6551 16.2378 20.0747 16.0732C20.7191 15.8205 21.7718 15.7895 22.8276 15.8802C23.2794 15.919 23.6885 15.9758 24 16.0262C23.9858 22.6417 18.619 28.0001 12.0002 28.0002C5.37818 28.0002 0.0089136 22.6364 1.05053e-06 16.0165C0.0862733 16.0041 0.178516 15.9908 0.276389 15.9775C0.963755 15.8841 1.92142 15.772 2.99963 15.6973Z" fill="url(#paint0_linear_285_104)"/>
<path d="M12.0002 3.99975C17.7202 3.99979 22.5047 8.00203 23.708 13.3588C23.5023 13.3334 23.2814 13.3089 23.0498 13.289C21.9484 13.1944 20.3713 13.1638 19.1258 13.6522C17.7408 14.1952 17.0613 15.4597 16.6776 16.0817C16.1668 16.9099 16.0788 16.8354 16.0491 16.8351C15.9353 16.8351 15.7269 16.7912 15.3622 16.5934C14.9972 16.3955 14.5951 16.1121 14.0848 15.7443C13.1256 15.053 11.8364 14.0927 10.2759 13.6183C8.00601 12.9283 5.0688 12.9475 2.81975 13.1032C1.85307 13.1701 0.980286 13.2654 0.293319 13.3529C1.49872 7.99903 6.28225 3.99976 12.0002 3.99975Z" fill="url(#paint1_linear_285_104)"/>
<path d="M33.0137 23V9.944H36.0857V12.992L35.7497 12.512C35.9737 11.536 36.4457 10.816 37.1657 10.352C37.9017 9.888 38.7657 9.656 39.7577 9.656C40.8297 9.656 41.7737 9.936 42.5897 10.496C43.4057 11.04 43.9337 11.776 44.1737 12.704L43.2137 12.776C43.6297 11.72 44.2377 10.936 45.0377 10.424C45.8377 9.912 46.7657 9.656 47.8217 9.656C48.7497 9.656 49.5737 9.864 50.2937 10.28C51.0297 10.696 51.6057 11.272 52.0217 12.008C52.4377 12.744 52.6457 13.608 52.6457 14.6V23H49.3817V15.344C49.3817 14.784 49.2777 14.304 49.0697 13.904C48.8777 13.504 48.5977 13.192 48.2297 12.968C47.8617 12.744 47.4297 12.632 46.9337 12.632C46.4377 12.632 46.0057 12.744 45.6377 12.968C45.2697 13.192 44.9817 13.504 44.7737 13.904C44.5817 14.304 44.4857 14.784 44.4857 15.344V23H41.1977V15.344C41.1977 14.784 41.0937 14.304 40.8857 13.904C40.6937 13.504 40.4137 13.192 40.0457 12.968C39.6777 12.744 39.2457 12.632 38.7497 12.632C38.2537 12.632 37.8217 12.744 37.4537 12.968C37.0857 13.192 36.7977 13.504 36.5897 13.904C36.3977 14.304 36.3017 14.784 36.3017 15.344V23H33.0137ZM61.449 23.288C60.089 23.288 58.897 22.984 57.873 22.376C56.865 21.768 56.081 20.944 55.521 19.904C54.961 18.864 54.681 17.712 54.681 16.448C54.681 15.136 54.969 13.968 55.545 12.944C56.121 11.92 56.897 11.12 57.873 10.544C58.865 9.952 59.977 9.656 61.209 9.656C62.233 9.656 63.137 9.824 63.921 10.16C64.705 10.48 65.369 10.936 65.913 11.528C66.457 12.12 66.873 12.8 67.161 13.568C67.449 14.336 67.593 15.16 67.593 16.04C67.593 16.28 67.577 16.52 67.545 16.76C67.529 17 67.489 17.216 67.425 17.408H57.441V14.936H65.577L64.017 16.088C64.177 15.368 64.153 14.728 63.945 14.168C63.737 13.592 63.393 13.144 62.913 12.824C62.449 12.488 61.881 12.32 61.209 12.32C60.553 12.32 59.977 12.48 59.481 12.8C59.001 13.12 58.633 13.592 58.377 14.216C58.121 14.84 58.025 15.592 58.089 16.472C58.025 17.256 58.121 17.944 58.377 18.536C58.649 19.128 59.049 19.592 59.577 19.928C60.121 20.264 60.753 20.432 61.473 20.432C62.177 20.432 62.769 20.288 63.249 20C63.745 19.696 64.129 19.304 64.401 18.824L67.041 20.096C66.785 20.72 66.385 21.272 65.841 21.752C65.297 22.232 64.649 22.608 63.897 22.88C63.145 23.152 62.329 23.288 61.449 23.288ZM75.2563 23.144C73.7363 23.144 72.5603 22.736 71.7283 21.92C70.9123 21.088 70.5043 19.928 70.5043 18.44V12.824H68.2723V9.944H68.4643C69.1203 9.944 69.6243 9.776 69.9763 9.44C70.3283 9.088 70.5043 8.592 70.5043 7.952V6.968H73.7923V9.944H76.8163V12.824H73.7923V18.248C73.7923 18.696 73.8643 19.072 74.0083 19.376C74.1683 19.664 74.4083 19.888 74.7283 20.048C75.0643 20.208 75.4883 20.288 76.0003 20.288C76.1123 20.288 76.2403 20.28 76.3843 20.264C76.5443 20.248 76.6963 20.232 76.8403 20.216V23C76.6163 23.032 76.3523 23.064 76.0483 23.096C75.7603 23.128 75.4963 23.144 75.2563 23.144ZM78.4252 23V9.944H81.4972V12.896L81.2572 12.464C81.5612 11.456 82.0412 10.76 82.6972 10.376C83.3532 9.992 84.1292 9.8 85.0252 9.8H85.8172V12.68H84.6892C83.7932 12.68 83.0732 12.952 82.5292 13.496C81.9852 14.04 81.7132 14.808 81.7132 15.8V23H78.4252ZM89.2235 28.28C88.8555 28.28 88.4955 28.248 88.1435 28.184C87.8075 28.136 87.5115 28.04 87.2555 27.896V25.16C87.4635 25.224 87.7115 25.28 87.9995 25.328C88.3035 25.376 88.5835 25.4 88.8395 25.4C89.5595 25.4 90.0795 25.232 90.3995 24.896C90.7195 24.576 90.9915 24.16 91.2155 23.648L92.1035 21.632L92.0555 24.392L86.3435 9.944H89.8715L93.8075 20.48H92.5355L96.4475 9.944H99.9755L94.3355 24.296C93.9995 25.144 93.5835 25.864 93.0875 26.456C92.5915 27.064 92.0235 27.52 91.3835 27.824C90.7435 28.128 90.0235 28.28 89.2235 28.28Z" fill="#1A1817"/>
<defs>
<linearGradient id="paint0_linear_285_104" x1="12" y1="3.99975" x2="12" y2="28.0002" gradientUnits="userSpaceOnUse">
<stop stop-color="#8F85FF"/>
<stop offset="1" stop-color="#4135D6"/>
</linearGradient>
<linearGradient id="paint1_linear_285_104" x1="12" y1="3.99975" x2="12" y2="28.0002" gradientUnits="userSpaceOnUse">
<stop stop-color="#8F85FF"/>
<stop offset="1" stop-color="#4135D6"/>
</linearGradient>
</defs>
</svg>
