<svg width="175" height="47" viewBox="0 0 175 47" fill="none" xmlns="http://www.w3.org/2000/svg">
<path d="M60.9979 34V11.0909H65.2784V14.8196H65.5618C66.0391 13.5568 66.8196 12.5724 67.9034 11.8665C68.9872 11.1506 70.2848 10.7926 71.7962 10.7926C73.3274 10.7926 74.6101 11.1506 75.6442 11.8665C76.6882 12.5824 77.4588 13.5668 77.956 14.8196H78.1946C78.7415 13.5966 79.6115 12.6222 80.8047 11.8963C81.9979 11.1605 83.4197 10.7926 85.0703 10.7926C87.1484 10.7926 88.8438 11.4439 90.1562 12.7464C91.4787 14.049 92.1399 16.0128 92.1399 18.6378V34H87.6804V19.0554C87.6804 17.5043 87.2578 16.3807 86.4126 15.6847C85.5675 14.9886 84.5582 14.6406 83.3849 14.6406C81.9332 14.6406 80.8047 15.0881 79.9993 15.983C79.1939 16.8679 78.7912 18.0064 78.7912 19.3984V34H74.3466V18.772C74.3466 17.5291 73.9588 16.5298 73.1832 15.7741C72.4077 15.0185 71.3984 14.6406 70.1555 14.6406C69.3104 14.6406 68.5298 14.8643 67.8139 15.3118C67.108 15.7493 66.5362 16.3608 66.0987 17.1463C65.6712 17.9318 65.4574 18.8416 65.4574 19.8757V34H60.9979ZM107.991 34.4624C105.733 34.4624 103.79 33.9801 102.159 33.0156C100.538 32.0412 99.2853 30.674 98.4004 28.9141C97.5254 27.1442 97.0879 25.071 97.0879 22.6946C97.0879 20.348 97.5254 18.2798 98.4004 16.4901C99.2853 14.7003 100.518 13.3033 102.099 12.299C103.69 11.2947 105.55 10.7926 107.677 10.7926C108.97 10.7926 110.223 11.0064 111.436 11.4339C112.649 11.8615 113.738 12.5327 114.702 13.4474C115.667 14.3622 116.427 15.5504 116.984 17.0121C117.541 18.4638 117.819 20.2287 117.819 22.3068V23.8878H99.6085V20.5469H113.449C113.449 19.3736 113.211 18.3345 112.733 17.4297C112.256 16.5149 111.585 15.794 110.72 15.267C109.865 14.7401 108.861 14.4766 107.707 14.4766C106.454 14.4766 105.361 14.7848 104.426 15.4013C103.501 16.0078 102.785 16.8033 102.278 17.7876C101.781 18.7621 101.532 19.821 101.532 20.9645V23.5746C101.532 25.1058 101.801 26.4084 102.338 27.4822C102.885 28.5561 103.645 29.3764 104.62 29.9432C105.594 30.5 106.733 30.7784 108.035 30.7784C108.881 30.7784 109.651 30.6591 110.347 30.4205C111.043 30.1719 111.645 29.804 112.152 29.3168C112.659 28.8295 113.047 28.228 113.315 27.5121L117.536 28.2727C117.198 29.5156 116.591 30.6044 115.716 31.5391C114.851 32.4638 113.763 33.1847 112.45 33.7017C111.148 34.2088 109.661 34.4624 107.991 34.4624ZM133.461 11.0909V14.6705H120.948V11.0909H133.461ZM124.304 5.60227H128.763V27.2734C128.763 28.1385 128.892 28.7898 129.151 29.2273C129.409 29.6548 129.743 29.9482 130.15 30.1072C130.568 30.2564 131.02 30.331 131.507 30.331C131.865 30.331 132.179 30.3061 132.447 30.2564C132.716 30.2067 132.924 30.1669 133.074 30.1371L133.879 33.821C133.62 33.9205 133.252 34.0199 132.775 34.1193C132.298 34.2287 131.701 34.2884 130.985 34.2983C129.812 34.3182 128.718 34.1094 127.704 33.6719C126.69 33.2344 125.87 32.5582 125.243 31.6435C124.617 30.7287 124.304 29.5803 124.304 28.1982V5.60227ZM138.394 34V11.0909H142.705V14.7301H142.943C143.361 13.4972 144.097 12.5277 145.151 11.8217C146.215 11.1058 147.418 10.7479 148.76 10.7479C149.039 10.7479 149.367 10.7578 149.744 10.7777C150.132 10.7976 150.436 10.8224 150.654 10.8523V15.1179C150.475 15.0682 150.157 15.0135 149.7 14.9538C149.242 14.8842 148.785 14.8494 148.328 14.8494C147.274 14.8494 146.334 15.0732 145.509 15.5206C144.693 15.9581 144.047 16.5696 143.57 17.3551C143.093 18.1307 142.854 19.0156 142.854 20.0099V34H138.394ZM158.03 42.5909C157.363 42.5909 156.757 42.5362 156.21 42.4268C155.663 42.3274 155.256 42.218 154.987 42.0987L156.061 38.4446C156.876 38.6634 157.602 38.7578 158.238 38.728C158.875 38.6982 159.437 38.4595 159.924 38.0121C160.421 37.5646 160.858 36.8338 161.236 35.8196L161.788 34.2983L153.406 11.0909H158.179L163.981 28.8693H164.219L170.021 11.0909H174.809L165.368 37.0575C164.93 38.2507 164.373 39.2599 163.697 40.0852C163.021 40.9205 162.216 41.5469 161.281 41.9645C160.346 42.3821 159.263 42.5909 158.03 42.5909Z" fill="#171717"/>
<g clip-path="url(#clip0_49_2)">
<path d="M45.0086 6.13677C45.6225 6.49531 46 7.15285 46 7.86384V16.6598C46 18.2038 44.3247 19.1655 42.9914 18.3869L35.5086 14.0171C34.8854 13.6532 34.1146 13.6532 33.4914 14.0171L24.0086 19.5548C23.3854 19.9187 22.6146 19.9187 21.9914 19.5548L12.5086 14.0171C11.8854 13.6532 11.1146 13.6532 10.4914 14.0171L3.00857 18.3869C1.67526 19.1655 0 18.2038 0 16.6598V7.86384C0 7.15285 0.377461 6.49531 0.991428 6.13677L10.4914 0.588984C11.1146 0.225082 11.8854 0.225081 12.5086 0.588983L21.9914 6.12676C22.6146 6.49066 23.3854 6.49066 24.0086 6.12676L33.4914 0.588983C34.1146 0.225081 34.8854 0.225081 35.5086 0.588983L45.0086 6.13677Z" fill="url(#paint0_linear_49_2)"/>
<path d="M41.4877 22.7775C43.4877 21.6102 46 23.0528 46 25.3685V31.8493C46 32.916 45.4336 33.9025 44.5123 34.4402L34.5 40.2842L24.5129 46.1165C23.5781 46.6624 22.4219 46.6624 21.4871 46.1165L11.5 40.2842L1.48771 34.4402C0.56644 33.9025 0 32.916 0 31.8493V25.3685C0 23.0528 2.51232 21.6102 4.51229 22.7775L11.5 26.8561L21.4871 32.6884C22.4219 33.2343 23.5781 33.2343 24.5129 32.6884L34.5 26.8561L41.4877 22.7775Z" fill="url(#paint1_linear_49_2)"/>
</g>
<defs>
<linearGradient id="paint0_linear_49_2" x1="23" y1="0" x2="23" y2="20.1438" gradientUnits="userSpaceOnUse">
<stop stop-color="#B5AFFF"/>
<stop offset="1" stop-color="#4135D6"/>
</linearGradient>
<linearGradient id="paint1_linear_49_2" x1="23" y1="20.1438" x2="23" y2="47" gradientUnits="userSpaceOnUse">
<stop stop-color="#B5AFFF"/>
<stop offset="1" stop-color="#4135D6"/>
</linearGradient>
<clipPath id="clip0_49_2">
<rect width="46" height="47" fill="white"/>
</clipPath>
</defs>
</svg>
