<svg width="107" height="25" viewBox="0 0 107 25" fill="none" xmlns="http://www.w3.org/2000/svg">
<path d="M22 6.39784V11.1923L16.5 8.79447L11 11.1923L5.5 8.79447L0 11.1923V6.39784L5.5 4L11 6.39784L16.5 4L22 6.39784Z" fill="#1A1817"/>
<path d="M22 9.88462V15.4423L11 21L0 15.4423V9.88462L11 14.9286L22 9.88462Z" fill="#1A1817"/>
<path d="M27.1 17V6.08H29.9V8.74L29.6 8.3C29.76 7.46 30.1467 6.84 30.76 6.44C31.3733 6.04 32.1067 5.84 32.96 5.84C33.8667 5.84 34.66 6.07333 35.34 6.54C36.0333 6.99333 36.4667 7.60667 36.64 8.38L35.78 8.46C36.14 7.56667 36.6533 6.90667 37.32 6.48C37.9867 6.05333 38.7667 5.84 39.66 5.84C40.4467 5.84 41.14 6.01333 41.74 6.36C42.3533 6.70667 42.8333 7.19333 43.18 7.82C43.5267 8.43333 43.7 9.15333 43.7 9.98V17H40.7V10.62C40.7 10.1933 40.62 9.82667 40.46 9.52C40.3133 9.21333 40.1 8.97333 39.82 8.8C39.54 8.62667 39.2 8.54 38.8 8.54C38.4133 8.54 38.0733 8.62667 37.78 8.8C37.5 8.97333 37.28 9.21333 37.12 9.52C36.9733 9.82667 36.9 10.1933 36.9 10.62V17H33.9V10.62C33.9 10.1933 33.82 9.82667 33.66 9.52C33.5133 9.21333 33.3 8.97333 33.02 8.8C32.74 8.62667 32.4 8.54 32 8.54C31.6133 8.54 31.2733 8.62667 30.98 8.8C30.7 8.97333 30.48 9.21333 30.32 9.52C30.1733 9.82667 30.1 10.1933 30.1 10.62V17H27.1ZM50.9342 17.24C49.7742 17.24 48.7676 16.9867 47.9142 16.48C47.0609 15.96 46.4009 15.2667 45.9342 14.4C45.4676 13.5333 45.2342 12.5733 45.2342 11.52C45.2342 10.4267 45.4742 9.45333 45.9542 8.6C46.4476 7.74667 47.1076 7.07333 47.9342 6.58C48.7609 6.08667 49.6942 5.84 50.7342 5.84C51.6009 5.84 52.3676 5.98 53.0342 6.26C53.7009 6.52667 54.2609 6.90667 54.7142 7.4C55.1809 7.89333 55.5342 8.46667 55.7742 9.12C56.0142 9.76 56.1342 10.46 56.1342 11.22C56.1342 11.4333 56.1209 11.6467 56.0942 11.86C56.0809 12.06 56.0476 12.2333 55.9942 12.38H47.8142V10.18H54.2942L52.8742 11.22C53.0076 10.6467 53.0009 10.14 52.8542 9.7C52.7076 9.24667 52.4476 8.89333 52.0742 8.64C51.7142 8.37333 51.2676 8.24 50.7342 8.24C50.2142 8.24 49.7676 8.36667 49.3942 8.62C49.0209 8.87333 48.7409 9.24667 48.5542 9.74C48.3676 10.2333 48.2942 10.8333 48.3342 11.54C48.2809 12.1533 48.3542 12.6933 48.5542 13.16C48.7542 13.6267 49.0609 13.9933 49.4742 14.26C49.8876 14.5133 50.3876 14.64 50.9742 14.64C51.5076 14.64 51.9609 14.5333 52.3342 14.32C52.7209 14.1067 53.0209 13.8133 53.2342 13.44L55.6342 14.58C55.4209 15.1133 55.0809 15.58 54.6142 15.98C54.1609 16.38 53.6209 16.6933 52.9942 16.92C52.3676 17.1333 51.6809 17.24 50.9342 17.24ZM63.1608 17.12C61.8408 17.12 60.8141 16.7667 60.0808 16.06C59.3608 15.34 59.0008 14.34 59.0008 13.06V8.68H57.1608V6.08H57.2608C57.8208 6.08 58.2474 5.94 58.5408 5.66C58.8474 5.38 59.0008 4.96 59.0008 4.4V3.6H62.0008V6.08H64.5608V8.68H62.0008V12.86C62.0008 13.2333 62.0674 13.5467 62.2008 13.8C62.3341 14.04 62.5408 14.22 62.8208 14.34C63.1008 14.46 63.4474 14.52 63.8608 14.52C63.9541 14.52 64.0608 14.5133 64.1808 14.5C64.3008 14.4867 64.4274 14.4733 64.5608 14.46V17C64.3608 17.0267 64.1341 17.0533 63.8808 17.08C63.6274 17.1067 63.3874 17.12 63.1608 17.12ZM66.3188 17V6.08H69.1188V8.7L68.9188 8.32C69.1588 7.4 69.5521 6.78 70.0988 6.46C70.6588 6.12667 71.3188 5.96 72.0788 5.96H72.7188V8.56H71.7788C71.0454 8.56 70.4521 8.78667 69.9988 9.24C69.5454 9.68 69.3188 10.3067 69.3188 11.12V17H66.3188ZM75.7336 21.4C75.4136 21.4 75.1003 21.3733 74.7936 21.32C74.5003 21.2667 74.2403 21.18 74.0136 21.06V18.6C74.2003 18.6533 74.4203 18.7 74.6736 18.74C74.9269 18.78 75.1603 18.8 75.3736 18.8C75.9603 18.8 76.3803 18.66 76.6336 18.38C76.8869 18.1133 77.0936 17.8067 77.2536 17.46L77.9936 15.76L77.9536 18.26L73.1536 6.08H76.3736L79.5536 14.74H78.3536L81.5336 6.08H84.7536L80.0736 18.02C79.7803 18.7667 79.4203 19.3933 78.9936 19.9C78.5669 20.4067 78.0803 20.78 77.5336 21.02C77.0003 21.2733 76.4003 21.4 75.7336 21.4Z" fill="#1A1817"/>
</svg>
